<svg width="232" height="59" viewBox="0 0 232 59" fill="none" xmlns="http://www.w3.org/2000/svg">
<path d="M61.0107 9.5V47H52.7588V9.5H61.0107ZM65.0635 34.0605V33.5479C65.0635 31.611 65.3402 29.8288 65.8936 28.2012C66.4469 26.5573 67.2607 25.1331 68.335 23.9287C69.4092 22.7243 70.7357 21.7884 72.3145 21.1211C73.8932 20.4375 75.7161 20.0957 77.7832 20.0957C79.8665 20.0957 81.6976 20.4375 83.2764 21.1211C84.8714 21.7884 86.2061 22.7243 87.2803 23.9287C88.3545 25.1331 89.1683 26.5573 89.7217 28.2012C90.2751 29.8288 90.5518 31.611 90.5518 33.5479V34.0605C90.5518 35.9811 90.2751 37.7633 89.7217 39.4072C89.1683 41.0348 88.3545 42.459 87.2803 43.6797C86.2061 44.8841 84.8796 45.82 83.3008 46.4873C81.722 47.1546 79.8991 47.4883 77.832 47.4883C75.765 47.4883 73.9339 47.1546 72.3389 46.4873C70.7438 45.82 69.4092 44.8841 68.335 43.6797C67.2607 42.459 66.4469 41.0348 65.8936 39.4072C65.3402 37.7633 65.0635 35.9811 65.0635 34.0605ZM73.291 33.5479V34.0605C73.291 35.0534 73.3643 35.9811 73.5107 36.8438C73.6572 37.7064 73.9014 38.4632 74.2432 39.1143C74.585 39.749 75.0488 40.2454 75.6348 40.6035C76.2207 40.9616 76.9531 41.1406 77.832 41.1406C78.6947 41.1406 79.4108 40.9616 79.9805 40.6035C80.5664 40.2454 81.0303 39.749 81.3721 39.1143C81.7139 38.4632 81.958 37.7064 82.1045 36.8438C82.251 35.9811 82.3242 35.0534 82.3242 34.0605V33.5479C82.3242 32.5876 82.251 31.6842 82.1045 30.8379C81.958 29.9753 81.7139 29.2184 81.3721 28.5674C81.0303 27.9001 80.5664 27.3792 79.9805 27.0049C79.3945 26.6305 78.6621 26.4434 77.7832 26.4434C76.9206 26.4434 76.1963 26.6305 75.6104 27.0049C75.0407 27.3792 74.585 27.9001 74.2432 28.5674C73.9014 29.2184 73.6572 29.9753 73.5107 30.8379C73.3643 31.6842 73.291 32.5876 73.291 33.5479ZM105.371 41.1406C106.136 41.1406 106.787 41.0023 107.324 40.7256C107.878 40.4326 108.293 40.0257 108.569 39.5049C108.862 38.9678 109.001 38.3249 108.984 37.5762H116.724C116.74 39.5618 116.252 41.3034 115.259 42.8008C114.282 44.2819 112.948 45.4375 111.255 46.2676C109.578 47.0814 107.682 47.4883 105.566 47.4883C103.499 47.4883 101.693 47.1546 100.146 46.4873C98.6003 45.8037 97.3063 44.8597 96.2646 43.6553C95.2393 42.4346 94.4661 41.0104 93.9453 39.3828C93.4408 37.7552 93.1885 35.9893 93.1885 34.085V33.5234C93.1885 31.6191 93.4408 29.8532 93.9453 28.2256C94.4661 26.5817 95.2393 25.1576 96.2646 23.9531C97.3063 22.7324 98.5921 21.7884 100.122 21.1211C101.668 20.4375 103.467 20.0957 105.518 20.0957C107.715 20.0957 109.652 20.5107 111.328 21.3408C113.021 22.1709 114.347 23.3753 115.308 24.9541C116.268 26.5329 116.74 28.4453 116.724 30.6914H108.984C109.001 29.8939 108.879 29.1777 108.618 28.543C108.358 27.9082 107.951 27.4036 107.397 27.0293C106.86 26.6387 106.169 26.4434 105.322 26.4434C104.476 26.4434 103.792 26.6305 103.271 27.0049C102.751 27.3792 102.352 27.9001 102.075 28.5674C101.815 29.2184 101.636 29.9671 101.538 30.8135C101.457 31.6598 101.416 32.5632 101.416 33.5234V34.085C101.416 35.0615 101.457 35.9811 101.538 36.8438C101.636 37.6901 101.823 38.4388 102.1 39.0898C102.376 39.7246 102.775 40.2292 103.296 40.6035C103.817 40.9616 104.508 41.1406 105.371 41.1406ZM133.96 40.3594V29.4707C133.96 28.722 133.854 28.0791 133.643 27.542C133.431 27.0049 133.097 26.5898 132.642 26.2969C132.186 25.9876 131.576 25.833 130.811 25.833C130.192 25.833 129.663 25.9388 129.224 26.1504C128.784 26.362 128.451 26.6794 128.223 27.1025C127.995 27.5257 127.881 28.0628 127.881 28.7139H119.653C119.653 27.4932 119.922 26.362 120.459 25.3203C121.012 24.2624 121.794 23.3428 122.803 22.5615C123.828 21.7803 125.049 21.1781 126.465 20.7549C127.897 20.3154 129.492 20.0957 131.25 20.0957C133.35 20.0957 135.221 20.4456 136.865 21.1455C138.525 21.8454 139.836 22.8952 140.796 24.2949C141.756 25.6784 142.236 27.4199 142.236 29.5195V40.335C142.236 42.0602 142.334 43.3704 142.529 44.2656C142.725 45.1445 143.001 45.9176 143.359 46.585V47H135.107C134.717 46.1862 134.424 45.1934 134.229 44.0215C134.049 42.8333 133.96 41.6126 133.96 40.3594ZM134.961 30.8623L135.01 35.2568H131.372C130.607 35.2568 129.956 35.3626 129.419 35.5742C128.898 35.7858 128.475 36.0788 128.149 36.4531C127.84 36.8112 127.612 37.2181 127.466 37.6738C127.336 38.1296 127.271 38.6097 127.271 39.1143C127.271 39.6025 127.384 40.042 127.612 40.4326C127.856 40.807 128.182 41.0999 128.589 41.3115C128.996 41.5231 129.451 41.6289 129.956 41.6289C130.868 41.6289 131.641 41.458 132.275 41.1162C132.926 40.7581 133.423 40.3268 133.765 39.8223C134.106 39.3177 134.277 38.8457 134.277 38.4062L136.084 41.7754C135.758 42.4264 135.384 43.0856 134.961 43.7529C134.554 44.4202 134.041 45.0387 133.423 45.6084C132.821 46.1618 132.08 46.6175 131.201 46.9756C130.322 47.3174 129.256 47.4883 128.003 47.4883C126.375 47.4883 124.878 47.1546 123.511 46.4873C122.16 45.82 121.077 44.8923 120.264 43.7041C119.45 42.4997 119.043 41.1162 119.043 39.5537C119.043 38.1865 119.287 36.9658 119.775 35.8916C120.28 34.8174 121.037 33.9059 122.046 33.1572C123.055 32.4085 124.341 31.8389 125.903 31.4482C127.466 31.0576 129.305 30.8623 131.421 30.8623H134.961ZM160.718 20.584V26.2969H144.8V20.584H160.718ZM148.145 14.0166H156.372V38.3818C156.372 39.0817 156.453 39.627 156.616 40.0176C156.779 40.3919 157.056 40.6605 157.446 40.8232C157.853 40.9697 158.39 41.043 159.058 41.043C159.53 41.043 159.92 41.0348 160.229 41.0186C160.539 40.986 160.832 40.9453 161.108 40.8965V46.7803C160.409 47.0081 159.676 47.179 158.911 47.293C158.146 47.4232 157.332 47.4883 156.47 47.4883C154.712 47.4883 153.206 47.2116 151.953 46.6582C150.716 46.1048 149.772 45.234 149.121 44.0459C148.47 42.8577 148.145 41.3115 148.145 39.4072V14.0166ZM172.681 20.584V47H164.429V20.584H172.681ZM163.94 13.7725C163.94 12.6006 164.364 11.6403 165.21 10.8916C166.056 10.1429 167.155 9.76855 168.506 9.76855C169.857 9.76855 170.955 10.1429 171.802 10.8916C172.648 11.6403 173.071 12.6006 173.071 13.7725C173.071 14.9443 172.648 15.9046 171.802 16.6533C170.955 17.402 169.857 17.7764 168.506 17.7764C167.155 17.7764 166.056 17.402 165.21 16.6533C164.364 15.9046 163.94 14.9443 163.94 13.7725ZM176.733 34.0605V33.5479C176.733 31.611 177.01 29.8288 177.563 28.2012C178.117 26.5573 178.931 25.1331 180.005 23.9287C181.079 22.7243 182.406 21.7884 183.984 21.1211C185.563 20.4375 187.386 20.0957 189.453 20.0957C191.536 20.0957 193.368 20.4375 194.946 21.1211C196.541 21.7884 197.876 22.7243 198.95 23.9287C200.024 25.1331 200.838 26.5573 201.392 28.2012C201.945 29.8288 202.222 31.611 202.222 33.5479V34.0605C202.222 35.9811 201.945 37.7633 201.392 39.4072C200.838 41.0348 200.024 42.459 198.95 43.6797C197.876 44.8841 196.549 45.82 194.971 46.4873C193.392 47.1546 191.569 47.4883 189.502 47.4883C187.435 47.4883 185.604 47.1546 184.009 46.4873C182.414 45.82 181.079 44.8841 180.005 43.6797C178.931 42.459 178.117 41.0348 177.563 39.4072C177.01 37.7633 176.733 35.9811 176.733 34.0605ZM184.961 33.5479V34.0605C184.961 35.0534 185.034 35.9811 185.181 36.8438C185.327 37.7064 185.571 38.4632 185.913 39.1143C186.255 39.749 186.719 40.2454 187.305 40.6035C187.891 40.9616 188.623 41.1406 189.502 41.1406C190.365 41.1406 191.081 40.9616 191.65 40.6035C192.236 40.2454 192.7 39.749 193.042 39.1143C193.384 38.4632 193.628 37.7064 193.774 36.8438C193.921 35.9811 193.994 35.0534 193.994 34.0605V33.5479C193.994 32.5876 193.921 31.6842 193.774 30.8379C193.628 29.9753 193.384 29.2184 193.042 28.5674C192.7 27.9001 192.236 27.3792 191.65 27.0049C191.064 26.6305 190.332 26.4434 189.453 26.4434C188.59 26.4434 187.866 26.6305 187.28 27.0049C186.711 27.3792 186.255 27.9001 185.913 28.5674C185.571 29.2184 185.327 29.9753 185.181 30.8379C185.034 31.6842 184.961 32.5876 184.961 33.5479ZM213.965 26.2236V47H205.737V20.584H213.452L213.965 26.2236ZM212.988 32.8887L211.06 32.9375C211.06 30.9193 211.304 29.1208 211.792 27.542C212.28 25.9469 212.972 24.596 213.867 23.4893C214.762 22.3825 215.828 21.5443 217.065 20.9746C218.319 20.3887 219.71 20.0957 221.24 20.0957C222.461 20.0957 223.576 20.2747 224.585 20.6328C225.61 20.9909 226.489 21.5687 227.222 22.3662C227.97 23.1637 228.54 24.2217 228.931 25.54C229.338 26.8421 229.541 28.4535 229.541 30.374V47H221.265V30.3496C221.265 29.2917 221.118 28.486 220.825 27.9326C220.532 27.363 220.109 26.9723 219.556 26.7607C219.002 26.5492 218.327 26.4434 217.529 26.4434C216.683 26.4434 215.967 26.6061 215.381 26.9316C214.795 27.2572 214.323 27.7129 213.965 28.2988C213.623 28.8685 213.371 29.5439 213.208 30.3252C213.062 31.1064 212.988 31.9609 212.988 32.8887Z" fill="black"/>
<path d="M9.5 53C9.5 54.3807 10.6193 55.5 12 55.5C13.3807 55.5 14.5 54.3807 14.5 53L9.5 53ZM9.5 32L9.5 53L14.5 53L14.5 32L9.5 32Z" fill="#672805"/>
<path d="M0 5.41193C0 2.42301 2.42301 0 5.41193 0C8.40086 0 10.8239 2.423 10.8239 5.41193V23.0235H20.5573C21.1749 23.0235 21.5474 22.3398 21.2126 21.8208L20.5302 20.7633C18.8425 18.1479 21.2527 14.8241 24.2631 15.6155C25.1016 15.8359 25.8246 16.3673 26.2852 17.1016L29.2356 21.805C29.7351 22.6012 30 23.5221 30 24.462V27.0833C30 29.8448 27.7614 32.0833 25 32.0833H1.52778C0.684009 32.0833 0 31.3993 0 30.5556V5.41193Z" fill="#A284DF"/>
<path d="M8.73784 6.35259C8.73784 8.12079 7.45629 10.5147 5.53396 14.0364C3.93202 10.5147 2.33008 8.12079 2.33008 6.35259C2.33008 4.5844 3.76451 3.151 5.53396 3.151C7.30342 3.151 8.73784 4.5844 8.73784 6.35259Z" fill="#F3EDFF"/>
<ellipse cx="5.74757" cy="6.57552" rx="1.74757" ry="1.57552" fill="black"/>
</svg>
